<svg version="1" xmlns="http://www.w3.org/2000/svg" width="340" height="340" viewBox="0 0 255.000000 255.000000"><path d="M108 1.5c-27.7 4.6-50.9 16.4-70.5 36C13.1 61.8 0 93.2 0 127.5c0 57.6 38.7 108.1 94.1 123 44.1 11.8 91.1-.8 123.3-33.1 17.7-17.7 29.5-39.8 35.2-65.9 2.4-11.1 2.4-36.9 0-48C241.4 52 204.6 14.4 154 2.9 142.5.3 119.4-.4 108 1.5zm30.8 54.2c5.4 10.9 15.4 31.6 22.2 46l12.4 26.3h10.4c11.7 0 14.2.8 14.2 4.8 0 4.4-1.6 5.2-10.7 5.2-4.6 0-8.3.4-8.3.9s5.2 11.5 11.5 24.6c6.3 13 11.5 24.2 11.5 24.8 0 1.8-3.2 4.7-5.3 4.7-1.1 0-6-3.3-11.1-7.4-12.1-9.8-19.7-14.6-34.1-21.6-13.4-6.5-27.5-11.5-44.3-15.5-13.4-3.3-13.3-3.3-23.3 6.5-5.7 5.7-16.8 21.2-22.1 30.9-1.4 2.6-2.3 3.1-5.3 3.1-2.9 0-3.8-.5-4.7-2.6-1.1-2.2-.9-3.2 1.1-6.8 10.3-18.4 19.2-35.9 18.8-37-.3-.8-3.2-1.6-7.3-2.1-3.8-.4-7.8-1.1-9.1-1.6-3.1-1.1-4-5.4-1.8-7.9 1.5-1.7 3.4-2 13.8-2.2l12-.3 9.9-21.5c19.3-42 31-66.8 32.4-68.9 1-1.3 2.6-2.1 4.5-2.1 2.8 0 3.3.7 12.7 19.7z"/><path d="M112 82.7c-7.3 15.9-13.5 29.4-13.7 30.1-.3.7 5.3-4.4 12.4-11.5 7.1-7 15.9-15.1 19.6-17.8 3.6-2.8 6.6-5.5 6.7-6 0-1.4-10.4-23.5-11.1-23.5-.4 0-6.6 12.9-13.9 28.7zM130.1 97.6c-10.8 9.2-29.1 28.5-29.1 30.6 0 .7 1.4.8 3.8.4 2-.3 15.5-.6 30-.6 15 0 26.2-.4 26.2-.9 0-1.5-18.3-39.1-19-39.1-.4 0-5.7 4.3-11.9 9.6zM126 138.9l-9.5.6 10.3 3.3c15 4.8 31.3 11.9 42.7 18.7 5.5 3.3 10.3 6.1 10.7 6.3.4.2-2.5-6.4-6.4-14.7l-7.1-15.1-15.6.2c-8.6.1-19.9.4-25.1.7z"/></svg>