<?xml version="1.0" standalone="no"?>
<!DOCTYPE svg PUBLIC "-//W3C//DTD SVG 20010904//EN"
 "http://www.w3.org/TR/2001/REC-SVG-20010904/DTD/svg10.dtd">
<svg version="1.0" xmlns="http://www.w3.org/2000/svg"
 width="1024.000000pt" height="1024.000000pt" viewBox="0 0 1024.000000 1024.000000"
 preserveAspectRatio="xMidYMid meet">
<metadata>
Created by potrace 1.11, written by Peter Selinger 2001-2013
</metadata>
<g transform="translate(0.000000,1024.000000) scale(0.100000,-0.100000)"
fill="#000000" stroke="none">
<path d="M4740 10229 c-1485 -111 -2839 -856 -3730 -2054 -789 -1058 -1132
-2366 -970 -3691 255 -2085 1788 -3817 3829 -4329 419 -105 791 -149 1251
-149 300 0 451 10 710 45 1569 216 2955 1157 3745 2544 219 384 410 861 514
1287 566 2303 -492 4663 -2589 5775 -611 324 -1304 520 -2025 573 -163 12
-569 11 -735 -1z m78 -354 c30 -14 79 -50 110 -82 65 -66 67 -69 480 -878 144
-280 645 -1257 1114 -2170 l853 -1660 400 -1 c448 -2 439 0 519 -74 150 -139
167 -373 32 -442 -44 -23 -114 -29 -473 -43 -101 -4 -183 -9 -183 -11 0 -2
264 -517 586 -1145 560 -1090 587 -1144 592 -1205 12 -159 -95 -255 -233 -209
-59 20 -80 35 -201 135 -310 259 -858 642 -1278 894 -1025 616 -1914 946
-3209 1191 l-188 35 -817 -607 c-451 -335 -835 -614 -857 -622 -37 -13 -47
-25 -110 -134 -203 -348 -286 -438 -405 -439 -132 -1 -279 143 -311 305 -17
81 0 128 71 200 92 92 206 275 402 642 137 256 429 845 424 854 -6 9 -41 12
-531 46 -198 14 -379 30 -403 35 -150 35 -277 171 -289 308 -11 120 37 196
143 225 49 13 170 18 724 28 366 6 668 14 672 18 47 42 1429 3117 2053 4568
77 179 112 234 160 254 38 15 100 9 153 -16z"/>
<path d="M4833 9033 c-28 -77 -832 -1898 -1112 -2517 -72 -159 -130 -291 -128
-292 2 -2 348 513 770 1145 l768 1149 -136 263 c-74 144 -139 267 -144 272 -5
5 -13 -3 -18 -20z"/>
<path d="M4472 6513 c-704 -1056 -909 -1369 -895 -1371 10 -1 628 79 1373 178
745 99 1358 180 1363 180 5 0 7 9 4 20 -11 44 -921 2360 -927 2360 -3 0 -416
-615 -918 -1367z"/>
<path d="M6123 4442 c-513 -26 -933 -49 -933 -52 0 -3 62 -25 138 -49 365
-116 773 -283 1172 -481 485 -241 843 -448 1284 -742 98 -66 176 -114 174
-106 -3 7 -175 342 -381 743 l-376 730 -73 1 c-40 1 -493 -19 -1005 -44z"/>
</g>
</svg>
