<svg width="52" height="74" viewBox="0 0 52 74" fill="none" xmlns="http://www.w3.org/2000/svg">
<path d="M50.6551 72.4321V6.91333H17.5753L6.56763 18.7389V72.4321H50.6551Z" stroke="black" stroke-width="2"/>
<path d="M45.6551 67.4321V1.91333H12.5753L1.56763 13.7389V67.4321H45.6551Z" fill="white" stroke="black" stroke-width="2"/>
<path d="M12.6552 1.86816H13.6552L11.9235 1.18654L12.6552 1.86816ZM1.35547 13.9982L0.623763 13.3166L1.35547 14.9982V13.9982ZM12.6552 13.9982V14.9982H13.6552V13.9982H12.6552ZM11.9235 1.18654L0.623763 13.3166L2.08717 14.6798L13.3869 2.54979L11.9235 1.18654ZM1.35547 14.9982H12.6552V12.9982H1.35547V14.9982ZM13.6552 13.9982V1.86816H11.6552V13.9982H13.6552Z" fill="black"/>
</svg>
