<svg version="1.1" id="Layer_1" xmlns="http://www.w3.org/2000/svg" xmlns:xlink="http://www.w3.org/1999/xlink" x="0px" y="0px"
	 viewBox="0 0 300 300" style="enable-background:new 0 0 300 300;" xml:space="preserve">
<g>
	<path class="st0" d="M225.7,92.8c-1.6-4.2-4-8-7.3-11.2c-3.1-3.2-7-5.7-11.2-7.3c-3.4-1.3-8.6-2.9-18-3.3
		c-10.2-0.5-13.3-0.6-39.3-0.6l0,0c-25.9,0-29,0.1-39.3,0.6c-9.5,0.4-14.6,2-18,3.3c-4.2,1.6-8,4-11.2,7.3c-3.2,3.1-5.7,7-7.3,11.2
		c-1.3,3.4-2.9,8.6-3.3,18c-0.5,10.2-0.6,13.3-0.6,39.3c0,25.9,0.1,29,0.6,39.3c0.4,9.5,2,14.6,3.3,18c1.6,4.2,4,8,7.3,11.2
		c3.1,3.2,7,5.7,11.2,7.3c3.4,1.3,8.6,2.9,18,3.3c10.2,0.5,13.3,0.6,39.3,0.6s29-0.1,39.3-0.6c9.5-0.4,14.6-2,18-3.3
		c8.5-3.3,15.2-10,18.4-18.4c1.3-3.4,2.9-8.6,3.3-18c0.5-10.2,0.6-13.3,0.6-39.3c0-25.9-0.1-29-0.6-39.3
		C228.6,101.4,227,96.3,225.7,92.8z M149.9,200.1c-27.6,0-49.9-22.3-49.9-49.9s22.3-49.9,49.9-49.9s49.9,22.3,49.9,49.9
		S177.5,200.1,149.9,200.1z M201.8,109.9c-6.4,0-11.7-5.2-11.7-11.7c0-6.4,5.2-11.7,11.7-11.7s11.7,5.2,11.7,11.7
		C213.5,104.7,208.3,109.9,201.8,109.9z"/>
	<path class="st0" d="M149.9,0.3C67.2,0.3,0.1,67.4,0.1,150.2S67.2,300,149.9,300s149.8-67.1,149.8-149.8S232.7,0.3,149.9,0.3z
		 M246.5,190.2c-0.5,10.3-2.1,17.4-4.5,23.6c-5,13.1-15.4,23.4-28.4,28.4c-6.2,2.4-13.2,4-23.6,4.5c-10.4,0.5-13.7,0.6-40.1,0.6
		c-26.4,0-29.7-0.1-40.1-0.6c-10.3-0.5-17.4-2.1-23.6-4.5c-6.5-2.4-12.4-6.3-17.2-11.2c-4.9-4.9-8.8-10.7-11.2-17.2
		c-2.4-6.2-4-13.2-4.5-23.6c-0.5-10.4-0.6-13.7-0.6-40.1s0.1-29.7,0.6-40.1c0.5-10.3,2.1-17.4,4.5-23.6c2.4-6.5,6.3-12.4,11.2-17.2
		c4.9-4.9,10.7-8.8,17.2-11.2c6.2-2.4,13.2-4,23.6-4.5c10.4-0.5,13.7-0.6,40.1-0.6c0,0,0,0,0,0h0c0,0,0,0,0,0
		c26.4,0,29.7,0.1,40.1,0.6c10.3,0.5,17.4,2.1,23.6,4.5c6.5,2.4,12.4,6.3,17.2,11.2c4.9,4.9,8.8,10.7,11.2,17.2
		c2.4,6.2,4,13.2,4.5,23.6c0.5,10.4,0.6,13.7,0.6,40.1S247,179.9,246.5,190.2z"/>
	
		<ellipse transform="matrix(0.9999 -1.183313e-02 1.183313e-02 0.9999 -1.7663 1.7848)" class="st0" cx="149.9" cy="150.2" rx="32.4" ry="32.4"/>
</g>
</svg>
