<?xml version="1.0" encoding="utf-8"?>
<!-- Generator: Adobe Illustrator 24.2.0, SVG Export Plug-In . SVG Version: 6.00 Build 0)  -->
<svg version="1.1" id="Layer_1" xmlns="http://www.w3.org/2000/svg" xmlns:xlink="http://www.w3.org/1999/xlink" x="0px" y="0px"
	 viewBox="0 0 83.6 83.6" style="enable-background:new 0 0 83.6 83.6;" xml:space="preserve">
<g id="Ebene_2">
	<g id="Ebene_1-2">
		<path d="M45.1,25.4c-1.3-2.6-2.5-5.2-3.8-7.9c-2.2,4.6-4.3,9.3-6.4,13.8c-1,2.1-1.9,4.2-2.9,6.2C36,33,40.4,29,45.1,25.4z"/>
		<path d="M40.5,45.6c-0.8,0.1-1.5,0.1-2.1,0.2c7.5,1.9,14.6,5.1,21,9.4c-1.6-3.3-3.1-6.5-4.7-9.8C49.9,45.5,45.2,45.5,40.5,45.6z"
			/>
		<path d="M41,41.9c0.1,0,0.3,0,0.4,0c3.8-0.1,7.7-0.1,11.6-0.1c-0.5-1.2-1.1-2.3-1.7-3.5l-4.6-9.5c-5.1,3.9-9.7,8.4-13.7,13.3
			l4-0.1l3.2,0L41,41.9z"/>
		<path d="M41.8,0C18.7,0,0,18.7,0,41.8s18.7,41.8,41.8,41.8s41.8-18.7,41.8-41.8S64.9,0,41.8,0C41.8,0,41.8,0,41.8,0z M65.7,63.2
			c-0.3,0.2-0.7,0.4-1.1,0.4c-0.5,0-0.9-0.2-1.2-0.5C53.6,54.2,43,50.3,31.4,48c-3.9,2.2-7.1,6.2-11.3,13.4l0,0
			c-0.1,0.1-0.2,0.2-0.2,0.3l-0.1,0.1L19.5,62L19.4,62c-0.1,0.1-0.2,0.1-0.4,0.2H19c-0.1,0-0.2,0-0.4,0h-0.1c-0.1,0-0.2,0-0.3,0
			h-0.1c-0.1,0-0.3-0.1-0.4-0.2l0,0c-0.1,0-0.1-0.1-0.2-0.1l-0.1-0.1l-0.1-0.2c0,0-0.1-0.1-0.1-0.1c0-0.1-0.1-0.1-0.1-0.2L17,61.3
			c0-0.1-0.1-0.1-0.1-0.2c0,0,0-0.1,0-0.1c0-0.1,0-0.2,0-0.3s0,0,0,0c0-0.3,0.1-0.7,0.2-1l0,0c2.4-4.2,4.6-8.5,6.8-12.9
			c-1.7-0.3-3.4-0.5-5.2-0.7c-1-0.1-1.7-1.1-1.6-2.1c0.1-0.9,0.9-1.6,1.8-1.6c2.4,0,4.8,0,7.1,0c1.9-4,3.8-8.2,5.7-12.4
			c2.6-5.6,5.3-11.5,8.1-17.3c0.3-0.6,1-1,1.7-1l0,0c0.7,0,1.3,0.4,1.7,1c4,8.2,7.9,16.3,11.7,24.2l2.4,5c2.1,0,4.2,0,6.4,0.1
			c1,0,1.8,0.9,1.8,1.9c0,0,0,0,0,0c0,1-0.8,1.8-1.8,1.8c0,0,0,0,0,0l-4.6-0.1c2.4,5.1,4.9,10.2,7.5,15.4
			C66.6,61.8,66.4,62.7,65.7,63.2z"/>
	</g>
</g>
</svg>
