<?xml version="1.0" encoding="utf-8"?>
<svg version="1.1" id="Layer_1" xmlns="http://www.w3.org/2000/svg" xmlns:xlink="http://www.w3.org/1999/xlink" x="0px" y="0px"
	 viewBox="0 0 300 300" style="enable-background:new 0 0 300 300;" xml:space="preserve">
<g>
	<path d="M150,0C67.2,0,0,67.2,0,150s67.2,150,150,150s150-67.2,150-150S232.8,0,150,0z M244,150.2c0,0,0,30.9-3.9,45.7
		c-2.2,8.2-8.6,14.6-16.8,16.8c-14.9,3.9-74.3,3.9-74.3,3.9s-59.3,0-74.3-4.1c-8.2-2.2-14.6-8.6-16.8-16.8C54,181,54,150,54,150
		s0-30.8,3.9-45.7c2.2-8.2,8.8-14.7,16.8-17c14.9-3.9,74.3-3.9,74.3-3.9s59.5,0,74.3,4.1c8.2,2.2,14.6,8.6,16.8,16.8
		C244.1,119.2,244,150.2,244,150.2z"/>
	<polygon points="130.1,178.5 179.5,150 130.1,121.5 	"/>
</g>
</svg>
