<svg version="1.1" id="Layer_1" xmlns="http://www.w3.org/2000/svg" xmlns:xlink="http://www.w3.org/1999/xlink" x="0px" y="0px"
	 viewBox="0 0 300 300" style="enable-background:new 0 0 300 300;" xml:space="preserve">
<path class="st0" d="M292.9,77.9c-3.4-12.8-13.5-22.8-26.3-26.3C243.3,45.2,150,45.2,150,45.2s-93.3,0-116.6,6.1
	C20.9,54.8,10.6,65.1,7.1,77.9C1,101.2,1,149.5,1,149.5s0,48.6,6.1,71.7c3.4,12.8,13.5,22.8,26.3,26.3c23.6,6.4,116.6,6.4,116.6,6.4
	s93.3,0,116.6-6.1c12.8-3.4,22.8-13.5,26.3-26.3c6.1-23.3,6.1-71.7,6.1-71.7S299.2,101.2,292.9,77.9z M120.3,194.2v-89.4l77.6,44.7
	L120.3,194.2z"/>
</svg>
