<svg id="Ebene_1" data-name="Ebene 1" xmlns="http://www.w3.org/2000/svg" viewBox="0 0 299.84 62.22"><title>Zeichenfläche 28</title><path d="M38.09,28.55l-3.34-7a57.42,57.42,0,0,0-9.93,9.65l2.75-.05c3.93-.07,7.72-.14,11.68-.16C38.86,30.18,38.48,29.36,38.09,28.55Z"/><path d="M30,34.05l-1,.08A49.59,49.59,0,0,1,44,40.79q-1.66-3.45-3.29-6.86C37,33.93,33.57,34,30,34.05Z"/><path d="M31.11,0A31.11,31.11,0,1,0,62.22,31.11,31.11,31.11,0,0,0,31.11,0ZM49,47.08a1.44,1.44,0,0,1-.88.3,1.48,1.48,0,0,1-1-.38c-7.26-6.6-15.16-9.49-23.76-11.22-2.84,1.61-5.13,4.58-8.26,9.92l0,0a1.64,1.64,0,0,1-.19.25l-.08.07a1.16,1.16,0,0,1-.21.16l-.07,0a1.75,1.75,0,0,1-.32.12h0l-.29,0h-.11l-.24,0-.1,0a1.27,1.27,0,0,1-.32-.13h0l-.16-.12-.08,0-.12-.14-.08-.07-.09-.15-.06-.09-.06-.16s0-.07,0-.11,0-.09,0-.14a.59.59,0,0,1,0-.14s0,0,0,0a1.43,1.43,0,0,1,.18-.8c1.76-3.11,3.4-6.26,5-9.48l-3.71-.52a1.47,1.47,0,0,1,.2-2.93q2.65,0,5.19,0c1.42-3,2.81-6,4.24-9.15,1.92-4.21,3.91-8.55,6-12.87a1.48,1.48,0,0,1,1.32-.82h0a1.48,1.48,0,0,1,1.32.82c3,6.1,5.88,12.16,8.68,18L42.51,31c1.54,0,3.11,0,4.73.05A1.47,1.47,0,1,1,47.19,34l-3.27,0c1.79,3.73,3.61,7.52,5.48,11.31A1.47,1.47,0,0,1,49,47.08Z"/><path d="M33.46,18.87q-1.34-2.79-2.7-5.59c-1.62,3.38-3.17,6.77-4.68,10.07-.61,1.35-1.22,2.68-1.83,4A62.12,62.12,0,0,1,33.46,18.87Z"/><path d="M92.07,46.44l10.12-27.72h6.93l10.12,27.72h-6L106.9,27.58l-1.26-4.2h-.09l-1.18,4.12L98,46.44Zm6-6.76V35.4h15.21v4.28Z"/><path d="M131.13,46.44V18.72h12.14c3.36,0,5.83.66,7.43,2a6.8,6.8,0,0,1,2.39,5.58,6,6,0,0,1-5.29,6.14v0a7,7,0,0,1,4.45,2.18,6.14,6.14,0,0,1,1.56,4.2,6.71,6.71,0,0,1-2.58,5.59q-2.59,2-7.54,2Zm5.63-16.08h5.75q4.58,0,4.58-3.57t-4.58-3.57h-5.75Zm0,11.71h6.42a5.33,5.33,0,0,0,3.49-1,3.35,3.35,0,0,0,1.13-2.69,3.28,3.28,0,0,0-1.13-2.69,5.51,5.51,0,0,0-3.49-.92h-6.42Z"/><path d="M177.83,18.72q6.51,0,10.08,3.59t3.57,10.27q0,6.64-3.57,10.25t-10.08,3.61H167.12V18.72Zm-.29,23.1a7.33,7.33,0,0,0,5.94-2.37q2-2.37,2-6.87t-2-6.86a7.3,7.3,0,0,0-5.94-2.38h-4.62V41.82Z"/><path d="M205.09,46.44V18.72h20.79v4.66h-15v6.89h11.8v4.46h-11.8v7.05h15.58v4.66Z"/><path d="M251.67,18.72A11.12,11.12,0,0,1,259.06,21a7.56,7.56,0,0,1,2.69,6.09,7.54,7.54,0,0,1-2.69,6.24,11.41,11.41,0,0,1-7.35,2.16l-.59.34h-6V46.44h-5.71V18.72ZM251,31.41a5.62,5.62,0,0,0,3.63-1,3.72,3.72,0,0,0,1.2-3.05,3.71,3.71,0,0,0-1.2-3,5.62,5.62,0,0,0-3.63-1h-5.84v8.07Zm3.4,1.21,9,13.82h-6.51L249.44,34.3Z"/><path d="M272.67,46.44l10.12-27.72h6.93l10.12,27.72h-6l-6.34-18.86-1.26-4.2h-.08L285,27.5l-6.38,18.94Zm6-6.76V35.4h15.2v4.28Z"/></svg>